<?xml version="1.0" standalone="no"?>
<!DOCTYPE svg PUBLIC "-//W3C//DTD SVG 20010904//EN"
 "http://www.w3.org/TR/2001/REC-SVG-20010904/DTD/svg10.dtd">
<svg version="1.0" xmlns="http://www.w3.org/2000/svg"
 width="512.000000pt" height="512.000000pt" viewBox="0 0 512.000000 512.000000"
 preserveAspectRatio="xMidYMid meet">

<g transform="translate(0.000000,512.000000) scale(0.100000,-0.100000)"
fill="#000000" stroke="none">
<path d="M2075 4921 c-53 -24 -111 -90 -126 -143 -24 -92 -16 -112 208 -502
141 -246 221 -374 250 -403 60 -59 137 -77 226 -52 72 20 112 75 330 455 171
299 209 370 214 412 8 67 -17 138 -65 185 -70 68 -62 67 -554 67 -407 0 -446
-2 -483 -19z m763 -276 c-4 -18 -271 -484 -278 -484 -7 0 -274 466 -278 484
-3 13 37 15 278 15 241 0 281 -2 278 -15z"/>
<path d="M1729 4056 c-625 -279 -1072 -865 -1174 -1542 -76 -504 42 -1031 325
-1444 290 -422 702 -709 1199 -835 287 -72 650 -74 946 -5 758 176 1358 792
1519 1557 119 566 -1 1126 -344 1616 -84 120 -317 353 -437 437 -194 136 -434
260 -504 260 -126 0 -192 -157 -102 -242 16 -15 54 -38 86 -52 l58 -25 -15
-28 c-8 -15 -140 -246 -294 -512 l-280 -485 -152 0 -152 0 -260 450 c-143 247
-275 477 -295 512 l-35 62 59 26 c32 14 70 37 86 52 90 86 22 243 -105 241
-18 0 -76 -19 -129 -43z m140 -941 c189 -329 290 -513 285 -520 -47 -62 -89
-133 -109 -181 l-24 -59 -595 -3 -596 -2 0 32 c0 88 59 334 111 465 80 203
205 397 353 551 106 110 253 235 271 229 5 -2 142 -232 304 -512z m1767 460
c226 -174 439 -460 545 -734 53 -137 109 -372 109 -459 l0 -32 -596 2 -595 3
-24 59 c-20 48 -62 119 -109 181 -5 7 91 184 274 501 315 545 308 534 317 534
4 0 39 -25 79 -55z m-970 -1120 c45 -19 112 -81 137 -129 17 -32 22 -58 22
-121 0 -94 -20 -140 -84 -198 -56 -51 -104 -69 -181 -69 -77 0 -125 18 -181
69 -64 58 -84 104 -84 198 0 107 29 160 128 235 51 38 170 46 243 15z m-621
-459 c13 -33 41 -84 62 -114 21 -29 42 -59 47 -66 5 -8 -89 -181 -279 -511
-159 -275 -293 -506 -300 -513 -13 -15 -74 28 -194 135 -291 262 -507 686
-548 1074 l-6 59 597 -2 597 -3 24 -59z m2242 5 c-25 -239 -131 -531 -269
-743 -106 -162 -260 -328 -408 -438 -43 -32 -56 -38 -65 -28 -13 15 -585 1005
-585 1014 0 2 18 28 40 57 34 46 74 123 93 180 6 16 44 17 603 17 l597 0 -6
-59z m-1315 -797 c143 -247 275 -477 294 -511 l35 -62 -48 -21 c-304 -136
-696 -178 -1034 -110 -111 22 -287 79 -357 114 l-42 21 118 205 c65 113 198
342 295 510 l176 305 151 -1 152 0 260 -450z"/>
</g>
</svg>
